# xmcd
#
# Track frame offsets:
#  150
#  9208
#  25744
#  39966
#  63915
#  86944
#  112293
#  130923
#  152152
#  162180
#  177706
#  193770
#  213527
#
# Disc length: 3182 seconds
#
# Revision: 0
# Processed by: cddbd v1.5.1PL2 Copyright (c) Steve Scherf et al.
# Submitted via: AltoMP3_Maker 3.0
#
DISCID=b20c6c0d
DTITLE=Fernando Anbitelli - Voz e Violao
DYEAR=1900
DGENRE=
TTITLE0=A pedra mais alta
TTITLE1=Abacaiado
TTITLE2=Ana e o Mar
TTITLE3=Cuida de mim
TTITLE4=Durma medo meu
TTITLE5=Eu nao sei na verdade quem eu sou
TTITLE6=Folia no quarto
TTITLE7=No ar
TTITLE8=Palavra
TTITLE9=Pra todo dia
TTITLE10=Soprando
TTITLE11=Tem hora que a gente se pregunta
TTITLE12=Zaluzejo
EXTD=
EXTT0=
EXTT1=
EXTT2=
EXTT3=
EXTT4=
EXTT5=
EXTT6=
EXTT7=
EXTT8=
EXTT9=
EXTT10=
EXTT11=
EXTT12=
PLAYORDER=
